<?xml version="1.0" encoding="UTF-8" standalone="no"?>
<svg
   xmlns:dc="http://purl.org/dc/elements/1.1/"
   xmlns:cc="http://creativecommons.org/ns#"
   xmlns:rdf="http://www.w3.org/1999/02/22-rdf-syntax-ns#"
   xmlns:svg="http://www.w3.org/2000/svg"
   xmlns="http://www.w3.org/2000/svg"
   xmlns:sodipodi="http://sodipodi.sourceforge.net/DTD/sodipodi-0.dtd"
   xmlns:inkscape="http://www.inkscape.org/namespaces/inkscape"
   version="1.1"
   id="レイヤー_1"
   x="0px"
   y="0px"
   width="100%"
   height="auto"
   viewBox="0 0 1920 1080"
   enable-background="new 0 0 1920 1080"
   xml:space="preserve"
   sodipodi:docname="ピカチュウ.svg"
   inkscape:version="1.0.2 (e86c8708, 2021-01-15)"><metadata
   id="metadata896"><rdf:RDF><cc:Work
       rdf:about=""><dc:format>image/svg+xml</dc:format><dc:type
         rdf:resource="http://purl.org/dc/dcmitype/StillImage" /></cc:Work></rdf:RDF></metadata><defs
   id="defs894">
	
	
	
	
	
	
</defs><sodipodi:namedview
   pagecolor="#ffffff"
   bordercolor="#666666"
   borderopacity="1"
   objecttolerance="10"
   gridtolerance="10"
   guidetolerance="10"
   inkscape:pageopacity="0"
   inkscape:pageshadow="2"
   inkscape:window-width="1920"
   inkscape:window-height="965"
   id="namedview892"
   showgrid="false"
   inkscape:zoom="0.60250249"
   inkscape:cx="968.62244"
   inkscape:cy="503.43265"
   inkscape:window-x="0"
   inkscape:window-y="25"
   inkscape:window-maximized="0"
   inkscape:current-layer="g923" />

<path
   fill="#F0CF48"
   d="M797,771c3.8-4.8,11.1-11.4,11.5-13c0,0,69.7-54.4,54.5-109.8c-7.5-27.2-22.8-33-36.2-31.9  c-14.3,1.1-26.8,10.2-33,23.1c-7.3,15.2-19.3,45-34.6,100c0,0-2.2,13-4.5,15.9l-6.8,11.4c-0.4,5.7,4.1,10.5,9.7,10.6l15.5,1.2  C778.5,778.6,793.5,775.3,797,771z"
   id="path835" />
<path
   fill="#F0CF48"
   d="M1007.6,582.9c0,0,33.4-31.4,61.9,2.9c44.5,53.4,16.1,95.6,15.5,107.7c-0.6,12.1,6.7,0.7,12.4,10.4  c11.8,20.1-44.4,51.3-66.7,67.1c-11.9,8.4-19.1,4.8-37.5,5.5c-2.4,0.1-8.4-7.3-7.5-9.5c5.1-12.8,16,5.3,49.8-35.4  C992,749.1,936.8,655,1007.6,582.9z"
   id="path837" />



<g
   id="g923"
   inkscape:label="body"><g
     id="g843"
     inkscape:label="tail">
	<path
   fill="#f0cf48"
   d="m 1353.9,483.6 -90,10.9 3.3,22.9 5.5,37.7 -60,-2.7 8.9,29.3 -51.1,-6.1 -8.9,-22.5 36.8,9.5 -10.9,-36.8 48.4,5.5 -6.8,-17.3 -19.1,-48.2 77.7,-8.2 -70.2,-105 c 0,0 206.5,-175.8 232.4,-178.6 0,0 27.9,134.3 28.6,158.1 l -149.3,70.2 z"
   id="path839" />
	<polygon
   fill="#ba692d"
   points="1236,531.3 1229.2,514 1232.6,518.3 1232.6,499.9 1244.2,519.7 1243.5,499.9 1255.1,520.4 1255.1,504.7 1265.3,522.4 1267.3,517.4 1272.8,555.1 1212.9,552.4 1221.7,581.7 1170.6,575.6 1161.7,553.1 1198.5,562.6 1187.6,525.8 "
   id="polygon841" />
   <animateTransform
   attributeName="transform"
   type="rotate"
   values="0 1159.3 565.9;-10 1159.3 565.9;0 1159.3 565.9"
   begin="0s"
   dur="1.5s"
   repeatCount="indefinite"
   />
</g><!-- /tail -->

<path
     fill="#f0cf48"
     d="m 1178.8,683 c -37,69 -103.6,42.5 -103.6,42.5 C 1009.8,694.1 928,685.3 928,685.3 814.9,679.8 752.8,658.7 752.8,658.7 c -66.6,-24.1 -71.1,-79.8 -70.7,-99 0.1,-4.2 0.5,-6.6 0.5,-6.6 0,0 4.7,0 8.9,-1.9 1.8,-0.8 3.5,-1.9 4.7,-3.6 4.1,-5.5 8.9,-15.7 8.9,-22.5 L 717.4,491 c 25.2,-45.7 84.3,-41.8 84.3,-41.8 15.1,-4.9 91.3,20.6 125.4,32.5 10.9,3.8 22.4,5.4 34,4.9 4.9,-0.2 9.6,-0.4 14.2,-0.5 13.6,-0.4 26.1,-0.3 37.5,0.2 23.5,0.9 42.5,3.2 57.4,6 16.5,3.1 28.1,6.7 35.7,9.5 7.5,2.8 10.9,4.9 10.9,4.9 69.2,39 70.7,122.3 68.7,153.1 -0.6,8.2 -2.9,16.1 -6.7,23.2 z"
     id="path845" /><path
     fill="#040000"
     d="m 691.5,551.2 c -1,2.9 -3.6,6.1 -9.4,8.5 0.1,-4.2 0.5,-6.6 0.5,-6.6 0,0 4.7,0 8.9,-1.9 z"
     id="path847" /><path
     fill="#ba692d"
     d="m 1020.2,558.1 c -1,5.1 -0.2,8.4 -4.8,17.8 -1.8,3.8 -6.9,4.1 -8.4,0.1 l -4.3,-15.9 c -7.7,-27.7 -18.9,-59 -27.5,-74 13.6,-0.4 26.1,-0.3 37.5,0.2 7.1,24.1 9,64 7.5,71.8 z"
     id="path849" /><path
     fill="#ba692d"
     d="m 1102.7,568.3 c -2.9,7.7 -3,8.7 -5.4,12.5 -2.2,3.6 -7.7,2.4 -8.3,-1.8 l -1.5,-10.3 c -3,-35.2 -10.9,-60.7 -17.3,-76.4 16.5,3.1 28.1,6.7 35.7,9.5 2.4,26.7 -0.2,58.6 -3.2,66.5 z"
     id="path851" /><circle
     fill="#d14d2b"
     cx="772.20001"
     cy="593.59998"
     r="26.9"
     id="circle853" /><g
     id="g859">
		<ellipse
   fill="#221714"
   cx="730.29999"
   cy="545"
   rx="7"
   ry="22.1"
   id="ellipse855" />
		<ellipse
   fill="#ffffff"
   cx="727.90002"
   cy="537"
   rx="3.0999999"
   ry="8.5"
   id="ellipse857" />
	</g>
   <g
     id="g867"
     inkscape:label="right_ear">
	<path
   fill="#f0cf48"
   d="m 948.8,340.6 c -4.7,11.5 -19.2,38.1 -61.1,72.7 -16.3,13.5 -36.9,28.1 -62.6,43.6 L 796,471.1 778.3,450.7 c 0,0 40,-60.9 108.8,-95.4 17.4,-8.7 36.6,-15.8 57.5,-19.8 2.9,-0.7 5.4,2.3 4.2,5.1 z"
   id="path863" />
	<path
   fill="#040000"
   d="m 948.8,340.6 c -4.7,11.5 -19.2,38.1 -61.1,72.7 4.3,-27 1.7,-47.3 -0.6,-58.2 17.4,-8.7 36.6,-15.8 57.5,-19.8 2.9,-0.5 5.4,2.5 4.2,5.3 z"
   id="path865" />
   <animateTransform
   attributeName="transform"
   type="rotate"
   values="0 798 449;-13 798 449;0 798 449"
   begin="0s"
   dur="1.5s"
   repeatCount="indefinite"
   />
</g><!-- /right_ear -->
   <g
     id="g873"
     inkscape:label="left_ear">
	<path
   fill="#f0cf48"
   d="m 1001,393.8 c -7.2,9.7 -27.7,32.1 -74.8,54.4 -25.5,12.1 -58.7,24.1 -101.9,34 l -25.9,-26.6 c 0,0 50.5,-47 136.3,-62.3 19.5,-3.5 40.8,-5.4 63.8,-4.7 2.6,0.1 4.1,3.1 2.5,5.2 z"
   id="path869" />
	<path
   fill="#040000"
   d="m 1001,393.8 c -7.2,9.7 -27.7,32.1 -74.8,54.4 12.1,-29.6 11.6,-46 8.5,-54.9 19.5,-3.5 40.8,-5.4 63.8,-4.7 2.6,0.1 4.1,3.1 2.5,5.2 z"
   id="path871" />
   <animateTransform
   attributeName="transform"
   type="rotate"
   values="0 837 454;-10 837 454;0 837 454"
   begin="0s"
   dur="1.5s"
   repeatCount="indefinite"
   />
</g><!-- /left_ear -->

<animateTransform
attributeName="transform"
type="translate"
values="0 0;0 10;0 0"
begin="0s"
dur="1.5s"
repeatCount="indefinite"
/>

</g><!-- /body -->

<path
   fill="#F0CF48"
   d="M855.8,793.7c3.8-4.8,11.1-11.4,11.5-13c0,0,69.7-54.4,54.5-109.8c-7.5-27.2-22.8-33-36.2-31.9  c-14.3,1.1-26.8,10.2-33,23.1c-7.3,15.2-19.3,45-34.6,100c0,0-2.2,13-4.5,15.9l-6.8,11.4c-0.4,5.7,4.1,10.5,9.7,10.6l15.5,1.2  C837.4,801.2,852.4,798,855.8,793.7z"
   id="path875" />
<path
   fill="#F0CF48"
   d="M1086.3,603.5c0,0,33.4-31.4,61.9,2.9c44.5,53.4,16.1,95.6,15.5,107.7c-0.6,12.1,6.7,0.7,12.4,10.4  c11.8,20.1-44.4,51.3-66.7,67.1c-11.9,8.4-19.1,4.8-37.5,5.5c-2.4,0.1-8.4-7.3-7.5-9.5c5.1-12.8,16,5.3,49.8-35.4  C1070.7,769.6,1015.4,675.6,1086.3,603.5z"
   id="path877" />
<g
   id="g879">
</g>
<g
   id="g881">
</g>
<g
   id="g883">
</g>
<g
   id="g885">
</g>
<g
   id="g887">
</g>
<g
   id="g889">
</g>
</svg>
